<svg width="181" height="177" viewBox="0 0 181 177" fill="none" xmlns="http://www.w3.org/2000/svg">
<circle cx="88.5" cy="88.5" r="88.5" fill="black"/>
<circle cx="88.5" cy="88.5" r="88" stroke="#00FF66" stroke-opacity="0.2"/>
<circle cx="88.5" cy="88.5" r="88" stroke="#FF0000" stroke-opacity="0.51"/>
<path d="M27.95 86.25L27.7 83.1L33.9 81.95L30.9 84.45C31.0333 83.7167 31.15 82.9667 31.25 82.2C31.35 81.4 31.4333 80.65 31.5 79.95C31.6 79.2167 31.65 78.6667 31.65 78.3V58.45C31.65 57.9833 31.6 57.4167 31.5 56.75C31.4333 56.05 31.35 55.35 31.25 54.65C31.15 53.9167 31.0667 53.2833 31 52.75L33.9 54.95L27.75 53.9L28 50.5C28.6 50.5333 29.2833 50.5667 30.05 50.6C30.8167 50.6333 31.55 50.6667 32.25 50.7C32.95 50.7333 33.5167 50.75 33.95 50.75H45.95C46.2833 50.75 46.8 50.7333 47.5 50.7C48.2 50.6667 48.9333 50.6333 49.7 50.6C50.4667 50.5667 51.1167 50.5333 51.65 50.5L52.6 51.4L52.95 58.6L49.6 58.85C49.5667 58.45 49.5 57.9833 49.4 57.45C49.3333 56.8833 49.2333 56.4 49.1 56C49.0333 55.7333 48.8667 55.3667 48.6 54.9C48.3667 54.4 48.0833 53.8667 47.75 53.3L49.8 54.75C49.4667 54.7167 48.75 54.65 47.65 54.55C46.5833 54.45 45.5167 54.4 44.45 54.4H35.95L38.75 53.05C38.75 53.2833 38.7167 53.8167 38.65 54.65C38.5833 55.45 38.5 56.3333 38.4 57.3C38.3333 58.2667 38.3 59.15 38.3 59.95V76.8C38.3 77.6667 38.3333 78.5833 38.4 79.55C38.5 80.5167 38.6 81.4333 38.7 82.3C38.8333 83.1333 38.95 83.8333 39.05 84.4L36.1 82.25L43.6 82.75L43.3 86H35.2C34.8667 86 34.2833 86.0167 33.45 86.05C32.6167 86.0833 31.7 86.1167 30.7 86.15C29.7333 86.1833 28.8167 86.2167 27.95 86.25ZM45.95 73.7L45.3 69.15L47.35 70.7C46.9167 70.6667 46.3667 70.6333 45.7 70.6C45.0667 70.5333 44.4167 70.4833 43.75 70.45C43.0833 70.3833 42.5167 70.35 42.05 70.35H35.75V66.65H43.05C43.55 66.65 44.1667 66.5833 44.9 66.45C45.6667 66.3167 46.3 66.1833 46.8 66.05L45.3 67.95L45.95 63L48.75 63.25V67.4C48.75 68.3 48.7667 69.35 48.8 70.55C48.8333 71.7167 48.8667 72.6667 48.9 73.4L45.95 73.7ZM58.4676 86.25L58.2176 83.1L64.4176 81.95L61.4176 84.75C61.5176 84.2167 61.6176 83.55 61.7176 82.75C61.8176 81.9167 61.9176 81.0833 62.0176 80.25C62.1176 79.4167 62.1676 78.7667 62.1676 78.3V58.45C62.1676 57.9833 62.1176 57.4 62.0176 56.7C61.9509 56 61.8509 55.2833 61.7176 54.55C61.6176 53.7833 61.5176 53.1333 61.4176 52.6L64.4176 54.95L58.2676 53.9L58.5176 50.5C59.1176 50.5333 59.8009 50.5667 60.5676 50.6C61.3342 50.6333 62.0676 50.6667 62.7676 50.7C63.4676 50.7333 64.0342 50.75 64.4676 50.75C65.8009 50.75 67.1342 50.7333 68.4676 50.7C69.8342 50.6333 71.1842 50.5667 72.5176 50.5L72.7676 54.15L66.6176 54.75L69.5676 52.5C69.4676 53.1333 69.3509 53.8667 69.2176 54.7C69.1176 55.5333 69.0176 56.4 68.9176 57.3C68.8509 58.2 68.8176 59.0833 68.8176 59.95V76.8C68.8176 77.7 68.8509 78.6833 68.9176 79.75C69.0176 80.8167 69.1342 81.8 69.2676 82.7C69.4009 83.6 69.5009 84.2833 69.5676 84.75L66.6176 82.2L72.9676 82.75L72.6676 86H65.7176C64.4842 86 63.2676 86.0167 62.0676 86.05C60.9009 86.1167 59.7009 86.1833 58.4676 86.25ZM78.6824 86.25L78.4324 83.1L84.6324 81.95L81.6324 84.75C81.7324 84.2167 81.8324 83.55 81.9324 82.75C82.0324 81.9167 82.1324 81.0833 82.2324 80.25C82.3324 79.4167 82.3824 78.7667 82.3824 78.3V58.45C82.3824 57.9833 82.3324 57.4 82.2324 56.7C82.1658 56 82.0658 55.2833 81.9324 54.55C81.8324 53.7833 81.7324 53.1333 81.6324 52.6L84.6324 54.95L78.4824 53.9L78.7324 50.5C79.3324 50.5333 80.0158 50.5667 80.7824 50.6C81.5491 50.6333 82.2824 50.6667 82.9824 50.7C83.6824 50.7333 84.2491 50.75 84.6824 50.75C85.5824 50.75 86.4491 50.75 87.2824 50.75C88.1158 50.7167 88.8991 50.6833 89.6324 50.65C90.3658 50.6167 91.0324 50.6 91.6324 50.6C92.2658 50.5667 92.7991 50.5333 93.2324 50.5L93.4824 54.15L86.8324 54.75L89.7824 52.5C89.6824 53.1333 89.5658 53.8667 89.4324 54.7C89.3324 55.5333 89.2324 56.4 89.1324 57.3C89.0658 58.2 89.0324 59.0833 89.0324 59.95V76.8C89.0324 77.7 89.0658 78.6833 89.1324 79.75C89.2324 80.8167 89.3491 81.8 89.4824 82.7C89.6158 83.6 89.7158 84.2833 89.7824 84.75L87.5324 82.15H94.5824C95.6491 82.15 96.6491 82.0667 97.5824 81.9C98.5491 81.7333 99.2324 81.6 99.6324 81.5L97.0824 83.9C97.7824 83.0667 98.3491 82.25 98.7824 81.45C99.2491 80.65 99.5158 80.0667 99.5824 79.7L100.232 76.65L103.482 76.9L102.732 85.3L101.782 86.2C101.082 86.1667 100.332 86.1333 99.5324 86.1C98.7658 86.0667 98.0658 86.0333 97.4324 86C96.7991 86 96.3491 86 96.0824 86H85.9324C85.5991 86 85.0158 86.0167 84.1824 86.05C83.3491 86.0833 82.4324 86.1167 81.4324 86.15C80.4658 86.1833 79.5491 86.2167 78.6824 86.25ZM108.655 86.25L108.405 83.1L114.705 81.95L111.555 84.5C111.655 84.1 111.771 83.6333 111.905 83.1C112.038 82.5333 112.171 81.95 112.305 81.35C112.438 80.75 112.538 80.1833 112.605 79.65C112.705 79.1167 112.771 78.6667 112.805 78.3L114.055 58.4C114.088 57.9333 114.071 57.35 114.005 56.65C113.971 55.9167 113.921 55.2167 113.855 54.55C113.788 53.8833 113.738 53.3833 113.705 53.05L116.405 54.9L110.255 53.9L110.505 50.5C111.105 50.5333 111.771 50.5667 112.505 50.6C113.271 50.6333 114.005 50.6667 114.705 50.7C115.405 50.7333 115.971 50.75 116.405 50.75H121.905L122.905 51.75C123.171 52.5833 123.455 53.5333 123.755 54.6C124.055 55.6333 124.338 56.6 124.605 57.5C124.871 58.3667 125.071 58.9833 125.205 59.35L131.755 78.3H130.005L136.905 58.75C137.005 58.45 137.171 57.9167 137.405 57.15C137.671 56.35 137.971 55.4667 138.305 54.5C138.638 53.5 138.921 52.5833 139.155 51.75L140.155 50.75H143.755C144.821 50.75 146.021 50.7167 147.355 50.65C148.721 50.5833 149.871 50.5333 150.805 50.5L151.005 54.15L144.855 54.75L147.555 53.25C147.521 54.05 147.471 55.0667 147.405 56.3C147.371 57.5333 147.405 58.75 147.505 59.95L148.755 76.8C148.821 77.3 148.905 77.9333 149.005 78.7C149.138 79.4333 149.271 80.1833 149.405 80.95C149.538 81.7167 149.671 82.4333 149.805 83.1C149.938 83.7333 150.038 84.2 150.105 84.5L147.005 82.2L153.305 82.75L153.005 86H146.155C145.721 86 145.105 86.0167 144.305 86.05C143.505 86.0833 142.655 86.1167 141.755 86.15C140.855 86.1833 140.021 86.2167 139.255 86.25L139.005 83.1L145.105 81.95L142.205 84.5C142.271 84.1 142.338 83.5167 142.405 82.75C142.505 81.95 142.588 81.1333 142.655 80.3C142.721 79.4333 142.738 78.7667 142.705 78.3L141.555 56.25L142.605 56.45L131.855 86H128.255L117.705 56.4L118.755 56.25L117.605 76.8C117.571 77.3333 117.555 77.9667 117.555 78.7C117.588 79.4 117.621 80.1333 117.655 80.9C117.688 81.6333 117.738 82.3333 117.805 83C117.871 83.6333 117.921 84.1333 117.955 84.5L115.105 82.2L121.455 82.75L121.105 86H114.655C114.355 86 113.855 86.0167 113.155 86.05C112.455 86.0833 111.688 86.1167 110.855 86.15C110.055 86.1833 109.321 86.2167 108.655 86.25Z" fill="#00E0FF"/>
<path d="M27.95 133.25L27.7 130.1L33.9 128.95L30.9 131.75C31 131.217 31.1 130.55 31.2 129.75C31.3 128.917 31.4 128.083 31.5 127.25C31.6 126.417 31.65 125.767 31.65 125.3V105.45C31.65 104.983 31.6 104.4 31.5 103.7C31.4333 103 31.3333 102.283 31.2 101.55C31.1 100.783 31 100.133 30.9 99.6L33.9 101.95L27.75 100.9L28 97.5C28.6 97.5333 29.2833 97.5667 30.05 97.6C30.8167 97.6333 31.55 97.6667 32.25 97.7C32.95 97.7333 33.5167 97.75 33.95 97.75L38.85 99.5C38.7833 100.133 38.7 100.867 38.6 101.7C38.5333 102.533 38.4667 103.4 38.4 104.3C38.3333 105.2 38.3 106.083 38.3 106.95V123.8C38.3 124.7 38.3333 125.683 38.4 126.75C38.5 127.817 38.6167 128.8 38.75 129.7C38.8833 130.6 38.9833 131.283 39.05 131.75L36.1 129.2L42.95 129.75L42.65 133H35.2C34.7333 133 34.0833 133.017 33.25 133.05C32.4167 133.083 31.5333 133.117 30.6 133.15C29.6667 133.183 28.7833 133.217 27.95 133.25ZM41.7 119.1C40.8 119.1 39.75 119.1 38.55 119.1C37.35 119.1 35.7167 119.083 33.65 119.05V115.35C34.7167 115.383 35.7833 115.433 36.85 115.5C37.95 115.533 39.0167 115.55 40.05 115.55C42.45 115.55 44.35 114.917 45.75 113.65C47.1833 112.383 47.9 110.533 47.9 108.1C47.9 105.733 47.2833 103.967 46.05 102.8C44.8167 101.633 43 101.05 40.6 101.05C40.1 101.05 39.4167 101.083 38.55 101.15C37.7167 101.183 36.8667 101.233 36 101.3C35.1667 101.367 34.4833 101.433 33.95 101.5V97.75C35.3167 97.75 36.85 97.7167 38.55 97.65C40.2833 97.55 41.8333 97.5 43.2 97.5C46.6667 97.5 49.4667 98.4167 51.6 100.25C53.7333 102.083 54.8 104.7 54.8 108.1C54.8 110.4 54.1833 112.383 52.95 114.05C51.7167 115.683 50.1 116.933 48.1 117.8C46.1333 118.667 44 119.1 41.7 119.1ZM60.4695 133.25L60.2195 130.1L66.4195 128.95L63.4195 131.75C63.5195 131.217 63.6195 130.55 63.7195 129.75C63.8195 128.917 63.9195 128.083 64.0195 127.25C64.1195 126.417 64.1695 125.767 64.1695 125.3V105.45C64.1695 104.983 64.1195 104.4 64.0195 103.7C63.9529 103 63.8529 102.283 63.7195 101.55C63.6195 100.783 63.5195 100.133 63.4195 99.6L66.4195 101.95L60.2695 100.9L60.5195 97.5C61.1195 97.5333 61.8029 97.5667 62.5695 97.6C63.3362 97.6333 64.0695 97.6667 64.7695 97.7C65.4695 97.7333 66.0362 97.75 66.4695 97.75L71.3695 99.5C71.3029 100.133 71.2195 100.867 71.1195 101.7C71.0529 102.533 70.9862 103.4 70.9195 104.3C70.8529 105.2 70.8195 106.083 70.8195 106.95V123.8C70.8195 124.7 70.8529 125.683 70.9195 126.75C71.0195 127.817 71.1362 128.8 71.2695 129.7C71.4029 130.6 71.5029 131.283 71.5695 131.75L68.6195 129.2L74.6695 129.75L74.3195 133H67.7195C67.2529 133 66.6029 133.017 65.7695 133.05C64.9362 133.083 64.0529 133.117 63.1195 133.15C62.1862 133.183 61.3029 133.217 60.4695 133.25ZM81.4195 133C81.1529 132.333 80.8362 131.6 80.4695 130.8C80.1029 130 79.7695 129.267 79.4695 128.6C79.1695 127.933 78.9529 127.467 78.8195 127.2L72.8695 115.75L79.7195 115.55C80.5862 117.317 81.4695 119 82.3695 120.6C83.2695 122.2 84.0529 123.533 84.7195 124.6C85.3862 125.667 85.7529 126.283 85.8195 126.45C86.0529 126.783 86.3862 127.283 86.8195 127.95C87.2529 128.583 87.6029 129.083 87.8695 129.45L90.6695 129.75L90.3695 133H81.4195ZM73.8195 118.75C72.5195 118.75 71.2029 118.7 69.8695 118.6C68.5362 118.467 67.2029 118.35 65.8695 118.25V114.9C67.0362 114.933 68.2029 114.983 69.3695 115.05C70.5362 115.083 71.6862 115.1 72.8195 115.1C75.1862 115.1 76.9862 114.5 78.2195 113.3C79.4862 112.1 80.1195 110.317 80.1195 107.95C80.1195 105.75 79.5529 104.05 78.4195 102.85C77.3195 101.65 75.6029 101.05 73.2695 101.05C72.8695 101.05 72.2195 101.083 71.3195 101.15C70.4529 101.217 69.5695 101.283 68.6695 101.35C67.7695 101.417 67.0362 101.483 66.4695 101.55V97.75C67.8362 97.75 69.3529 97.7167 71.0195 97.65C72.6862 97.55 74.2029 97.5 75.5695 97.5C77.8695 97.5 79.8695 97.9167 81.5695 98.75C83.3029 99.55 84.6529 100.717 85.6195 102.25C86.5862 103.75 87.0695 105.583 87.0695 107.75C87.0695 109.983 86.4362 111.933 85.1695 113.6C83.9362 115.233 82.3029 116.5 80.2695 117.4C78.2695 118.3 76.1195 118.75 73.8195 118.75ZM112.495 133.75C108.895 133.75 105.795 132.983 103.195 131.45C100.628 129.917 98.6445 127.783 97.2445 125.05C95.8445 122.283 95.1445 119.067 95.1445 115.4C95.1445 111.7 95.8445 108.483 97.2445 105.75C98.6445 102.983 100.628 100.833 103.195 99.3C105.795 97.7667 108.895 97 112.495 97C116.095 97 119.195 97.7667 121.795 99.3C124.395 100.833 126.378 102.983 127.745 105.75C129.145 108.483 129.845 111.7 129.845 115.4C129.845 119.067 129.145 122.283 127.745 125.05C126.378 127.783 124.395 129.917 121.795 131.45C119.195 132.983 116.095 133.75 112.495 133.75ZM112.495 129.65C114.695 129.65 116.495 129.083 117.895 127.95C119.295 126.817 120.345 125.2 121.045 123.1C121.745 120.967 122.095 118.4 122.095 115.4C122.095 112.367 121.745 109.8 121.045 107.7C120.345 105.567 119.295 103.933 117.895 102.8C116.495 101.667 114.695 101.1 112.495 101.1C110.361 101.1 108.578 101.667 107.145 102.8C105.711 103.933 104.645 105.567 103.945 107.7C103.245 109.8 102.895 112.367 102.895 115.4C102.895 118.4 103.245 120.967 103.945 123.1C104.645 125.2 105.711 126.817 107.145 127.95C108.578 129.083 110.361 129.65 112.495 129.65Z" fill="#FF0000"/>
</svg>
