<svg width="212" height="175" viewBox="0 0 212 175" fill="none" xmlns="http://www.w3.org/2000/svg">
<rect x="6" width="200" height="175" rx="31" fill="#116267"/>
<g filter="url(#filter0_d_2_9)">
<rect x="20" y="63" width="172" height="49" rx="14" fill="#00F7F7"/>
</g>
<path d="M42.95 53.25L42.7 50.1L48.9 48.95L45.9 51.45C46.0333 50.7167 46.15 49.9667 46.25 49.2C46.35 48.4 46.4333 47.65 46.5 46.95C46.6 46.2167 46.65 45.6667 46.65 45.3V25.45C46.65 24.9833 46.6 24.4167 46.5 23.75C46.4333 23.05 46.35 22.35 46.25 21.65C46.15 20.9167 46.0667 20.2833 46 19.75L48.9 21.95L42.75 20.9L43 17.5C43.6 17.5333 44.2833 17.5667 45.05 17.6C45.8167 17.6333 46.55 17.6667 47.25 17.7C47.95 17.7333 48.5167 17.75 48.95 17.75H60.95C61.2833 17.75 61.8 17.7333 62.5 17.7C63.2 17.6667 63.9333 17.6333 64.7 17.6C65.4667 17.5667 66.1167 17.5333 66.65 17.5L67.6 18.4L67.95 25.6L64.6 25.85C64.5667 25.45 64.5 24.9833 64.4 24.45C64.3333 23.8833 64.2333 23.4 64.1 23C64.0333 22.7333 63.8667 22.3667 63.6 21.9C63.3667 21.4 63.0833 20.8667 62.75 20.3L64.8 21.75C64.4667 21.7167 63.75 21.65 62.65 21.55C61.5833 21.45 60.5167 21.4 59.45 21.4H50.95L53.75 20.05C53.75 20.2833 53.7167 20.8167 53.65 21.65C53.5833 22.45 53.5 23.3333 53.4 24.3C53.3333 25.2667 53.3 26.15 53.3 26.95V43.8C53.3 44.6667 53.3333 45.5833 53.4 46.55C53.5 47.5167 53.6 48.4333 53.7 49.3C53.8333 50.1333 53.95 50.8333 54.05 51.4L51.1 49.25L58.6 49.75L58.3 53H50.2C49.8667 53 49.2833 53.0167 48.45 53.05C47.6167 53.0833 46.7 53.1167 45.7 53.15C44.7333 53.1833 43.8167 53.2167 42.95 53.25ZM60.95 40.7L60.3 36.15L62.35 37.7C61.9167 37.6667 61.3667 37.6333 60.7 37.6C60.0667 37.5333 59.4167 37.4833 58.75 37.45C58.0833 37.3833 57.5167 37.35 57.05 37.35H50.75V33.65H58.05C58.55 33.65 59.1667 33.5833 59.9 33.45C60.6667 33.3167 61.3 33.1833 61.8 33.05L60.3 34.95L60.95 30L63.75 30.25V34.4C63.75 35.3 63.7667 36.35 63.8 37.55C63.8333 38.7167 63.8667 39.6667 63.9 40.4L60.95 40.7ZM73.4676 53.25L73.2176 50.1L79.4176 48.95L76.4176 51.75C76.5176 51.2167 76.6176 50.55 76.7176 49.75C76.8176 48.9167 76.9176 48.0833 77.0176 47.25C77.1176 46.4167 77.1676 45.7667 77.1676 45.3V25.45C77.1676 24.9833 77.1176 24.4 77.0176 23.7C76.9509 23 76.8509 22.2833 76.7176 21.55C76.6176 20.7833 76.5176 20.1333 76.4176 19.6L79.4176 21.95L73.2676 20.9L73.5176 17.5C74.1176 17.5333 74.8009 17.5667 75.5676 17.6C76.3342 17.6333 77.0676 17.6667 77.7676 17.7C78.4676 17.7333 79.0342 17.75 79.4676 17.75C80.8009 17.75 82.1342 17.7333 83.4676 17.7C84.8342 17.6333 86.1842 17.5667 87.5176 17.5L87.7676 21.15L81.6176 21.75L84.5676 19.5C84.4676 20.1333 84.3509 20.8667 84.2176 21.7C84.1176 22.5333 84.0176 23.4 83.9176 24.3C83.8509 25.2 83.8176 26.0833 83.8176 26.95V43.8C83.8176 44.7 83.8509 45.6833 83.9176 46.75C84.0176 47.8167 84.1342 48.8 84.2676 49.7C84.4009 50.6 84.5009 51.2833 84.5676 51.75L81.6176 49.2L87.9676 49.75L87.6676 53H80.7176C79.4842 53 78.2676 53.0167 77.0676 53.05C75.9009 53.1167 74.7009 53.1833 73.4676 53.25ZM93.6824 53.25L93.4324 50.1L99.6324 48.95L96.6324 51.75C96.7324 51.2167 96.8324 50.55 96.9324 49.75C97.0324 48.9167 97.1324 48.0833 97.2324 47.25C97.3324 46.4167 97.3824 45.7667 97.3824 45.3V25.45C97.3824 24.9833 97.3324 24.4 97.2324 23.7C97.1658 23 97.0658 22.2833 96.9324 21.55C96.8324 20.7833 96.7324 20.1333 96.6324 19.6L99.6324 21.95L93.4824 20.9L93.7324 17.5C94.3324 17.5333 95.0158 17.5667 95.7824 17.6C96.5491 17.6333 97.2824 17.6667 97.9824 17.7C98.6824 17.7333 99.2491 17.75 99.6824 17.75C100.582 17.75 101.449 17.75 102.282 17.75C103.116 17.7167 103.899 17.6833 104.632 17.65C105.366 17.6167 106.032 17.6 106.632 17.6C107.266 17.5667 107.799 17.5333 108.232 17.5L108.482 21.15L101.832 21.75L104.782 19.5C104.682 20.1333 104.566 20.8667 104.432 21.7C104.332 22.5333 104.232 23.4 104.132 24.3C104.066 25.2 104.032 26.0833 104.032 26.95V43.8C104.032 44.7 104.066 45.6833 104.132 46.75C104.232 47.8167 104.349 48.8 104.482 49.7C104.616 50.6 104.716 51.2833 104.782 51.75L102.532 49.15H109.582C110.649 49.15 111.649 49.0667 112.582 48.9C113.549 48.7333 114.232 48.6 114.632 48.5L112.082 50.9C112.782 50.0667 113.349 49.25 113.782 48.45C114.249 47.65 114.516 47.0667 114.582 46.7L115.232 43.65L118.482 43.9L117.732 52.3L116.782 53.2C116.082 53.1667 115.332 53.1333 114.532 53.1C113.766 53.0667 113.066 53.0333 112.432 53C111.799 53 111.349 53 111.082 53H100.932C100.599 53 100.016 53.0167 99.1824 53.05C98.3491 53.0833 97.4324 53.1167 96.4324 53.15C95.4658 53.1833 94.5491 53.2167 93.6824 53.25ZM123.655 53.25L123.405 50.1L129.705 48.95L126.555 51.5C126.655 51.1 126.771 50.6333 126.905 50.1C127.038 49.5333 127.171 48.95 127.305 48.35C127.438 47.75 127.538 47.1833 127.605 46.65C127.705 46.1167 127.771 45.6667 127.805 45.3L129.055 25.4C129.088 24.9333 129.071 24.35 129.005 23.65C128.971 22.9167 128.921 22.2167 128.855 21.55C128.788 20.8833 128.738 20.3833 128.705 20.05L131.405 21.9L125.255 20.9L125.505 17.5C126.105 17.5333 126.771 17.5667 127.505 17.6C128.271 17.6333 129.005 17.6667 129.705 17.7C130.405 17.7333 130.971 17.75 131.405 17.75H136.905L137.905 18.75C138.171 19.5833 138.455 20.5333 138.755 21.6C139.055 22.6333 139.338 23.6 139.605 24.5C139.871 25.3667 140.071 25.9833 140.205 26.35L146.755 45.3H145.005L151.905 25.75C152.005 25.45 152.171 24.9167 152.405 24.15C152.671 23.35 152.971 22.4667 153.305 21.5C153.638 20.5 153.921 19.5833 154.155 18.75L155.155 17.75H158.755C159.821 17.75 161.021 17.7167 162.355 17.65C163.721 17.5833 164.871 17.5333 165.805 17.5L166.005 21.15L159.855 21.75L162.555 20.25C162.521 21.05 162.471 22.0667 162.405 23.3C162.371 24.5333 162.405 25.75 162.505 26.95L163.755 43.8C163.821 44.3 163.905 44.9333 164.005 45.7C164.138 46.4333 164.271 47.1833 164.405 47.95C164.538 48.7167 164.671 49.4333 164.805 50.1C164.938 50.7333 165.038 51.2 165.105 51.5L162.005 49.2L168.305 49.75L168.005 53H161.155C160.721 53 160.105 53.0167 159.305 53.05C158.505 53.0833 157.655 53.1167 156.755 53.15C155.855 53.1833 155.021 53.2167 154.255 53.25L154.005 50.1L160.105 48.95L157.205 51.5C157.271 51.1 157.338 50.5167 157.405 49.75C157.505 48.95 157.588 48.1333 157.655 47.3C157.721 46.4333 157.738 45.7667 157.705 45.3L156.555 23.25L157.605 23.45L146.855 53H143.255L132.705 23.4L133.755 23.25L132.605 43.8C132.571 44.3333 132.555 44.9667 132.555 45.7C132.588 46.4 132.621 47.1333 132.655 47.9C132.688 48.6333 132.738 49.3333 132.805 50C132.871 50.6333 132.921 51.1333 132.955 51.5L130.105 49.2L136.455 49.75L136.105 53H129.655C129.355 53 128.855 53.0167 128.155 53.05C127.455 53.0833 126.688 53.1167 125.855 53.15C125.055 53.1833 124.321 53.2167 123.655 53.25Z" fill="#00FFF0"/>
<path d="M54.95 159.25L54.7 156.1L60.9 154.95L57.9 157.75C58 157.217 58.1 156.55 58.2 155.75C58.3 154.917 58.4 154.083 58.5 153.25C58.6 152.417 58.65 151.767 58.65 151.3V131.45C58.65 130.983 58.6 130.4 58.5 129.7C58.4333 129 58.3333 128.283 58.2 127.55C58.1 126.783 58 126.133 57.9 125.6L60.9 127.95L54.75 126.9L55 123.5C55.6 123.533 56.2833 123.567 57.05 123.6C57.8167 123.633 58.55 123.667 59.25 123.7C59.95 123.733 60.5167 123.75 60.95 123.75L65.85 125.5C65.7833 126.133 65.7 126.867 65.6 127.7C65.5333 128.533 65.4667 129.4 65.4 130.3C65.3333 131.2 65.3 132.083 65.3 132.95V149.8C65.3 150.7 65.3333 151.683 65.4 152.75C65.5 153.817 65.6167 154.8 65.75 155.7C65.8833 156.6 65.9833 157.283 66.05 157.75L63.1 155.2L69.95 155.75L69.65 159H62.2C61.7333 159 61.0833 159.017 60.25 159.05C59.4167 159.083 58.5333 159.117 57.6 159.15C56.6667 159.183 55.7833 159.217 54.95 159.25ZM68.7 145.1C67.8 145.1 66.75 145.1 65.55 145.1C64.35 145.1 62.7167 145.083 60.65 145.05V141.35C61.7167 141.383 62.7833 141.433 63.85 141.5C64.95 141.533 66.0167 141.55 67.05 141.55C69.45 141.55 71.35 140.917 72.75 139.65C74.1833 138.383 74.9 136.533 74.9 134.1C74.9 131.733 74.2833 129.967 73.05 128.8C71.8167 127.633 70 127.05 67.6 127.05C67.1 127.05 66.4167 127.083 65.55 127.15C64.7167 127.183 63.8667 127.233 63 127.3C62.1667 127.367 61.4833 127.433 60.95 127.5V123.75C62.3167 123.75 63.85 123.717 65.55 123.65C67.2833 123.55 68.8333 123.5 70.2 123.5C73.6667 123.5 76.4667 124.417 78.6 126.25C80.7333 128.083 81.8 130.7 81.8 134.1C81.8 136.4 81.1833 138.383 79.95 140.05C78.7167 141.683 77.1 142.933 75.1 143.8C73.1333 144.667 71 145.1 68.7 145.1ZM87.4695 159.25L87.2195 156.1L93.4195 154.95L90.4195 157.75C90.5195 157.217 90.6195 156.55 90.7195 155.75C90.8195 154.917 90.9195 154.083 91.0195 153.25C91.1195 152.417 91.1695 151.767 91.1695 151.3V131.45C91.1695 130.983 91.1195 130.4 91.0195 129.7C90.9529 129 90.8529 128.283 90.7195 127.55C90.6195 126.783 90.5195 126.133 90.4195 125.6L93.4195 127.95L87.2695 126.9L87.5195 123.5C88.1195 123.533 88.8029 123.567 89.5695 123.6C90.3362 123.633 91.0695 123.667 91.7695 123.7C92.4695 123.733 93.0362 123.75 93.4695 123.75L98.3695 125.5C98.3029 126.133 98.2195 126.867 98.1195 127.7C98.0529 128.533 97.9862 129.4 97.9195 130.3C97.8529 131.2 97.8195 132.083 97.8195 132.95V149.8C97.8195 150.7 97.8529 151.683 97.9195 152.75C98.0195 153.817 98.1362 154.8 98.2695 155.7C98.4029 156.6 98.5029 157.283 98.5695 157.75L95.6195 155.2L101.67 155.75L101.32 159H94.7195C94.2529 159 93.6029 159.017 92.7695 159.05C91.9362 159.083 91.0529 159.117 90.1195 159.15C89.1862 159.183 88.3029 159.217 87.4695 159.25ZM108.42 159C108.153 158.333 107.836 157.6 107.47 156.8C107.103 156 106.77 155.267 106.47 154.6C106.17 153.933 105.953 153.467 105.82 153.2L99.8695 141.75L106.72 141.55C107.586 143.317 108.47 145 109.37 146.6C110.27 148.2 111.053 149.533 111.72 150.6C112.386 151.667 112.753 152.283 112.82 152.45C113.053 152.783 113.386 153.283 113.82 153.95C114.253 154.583 114.603 155.083 114.87 155.45L117.67 155.75L117.37 159H108.42ZM100.82 144.75C99.5195 144.75 98.2029 144.7 96.8695 144.6C95.5362 144.467 94.2029 144.35 92.8695 144.25V140.9C94.0362 140.933 95.2029 140.983 96.3695 141.05C97.5362 141.083 98.6862 141.1 99.8195 141.1C102.186 141.1 103.986 140.5 105.22 139.3C106.486 138.1 107.12 136.317 107.12 133.95C107.12 131.75 106.553 130.05 105.42 128.85C104.32 127.65 102.603 127.05 100.27 127.05C99.8695 127.05 99.2195 127.083 98.3195 127.15C97.4529 127.217 96.5695 127.283 95.6695 127.35C94.7695 127.417 94.0362 127.483 93.4695 127.55V123.75C94.8362 123.75 96.3529 123.717 98.0195 123.65C99.6862 123.55 101.203 123.5 102.57 123.5C104.87 123.5 106.87 123.917 108.57 124.75C110.303 125.55 111.653 126.717 112.62 128.25C113.586 129.75 114.07 131.583 114.07 133.75C114.07 135.983 113.436 137.933 112.17 139.6C110.936 141.233 109.303 142.5 107.27 143.4C105.27 144.3 103.12 144.75 100.82 144.75ZM139.495 159.75C135.895 159.75 132.795 158.983 130.195 157.45C127.628 155.917 125.645 153.783 124.245 151.05C122.845 148.283 122.145 145.067 122.145 141.4C122.145 137.7 122.845 134.483 124.245 131.75C125.645 128.983 127.628 126.833 130.195 125.3C132.795 123.767 135.895 123 139.495 123C143.095 123 146.195 123.767 148.795 125.3C151.395 126.833 153.378 128.983 154.745 131.75C156.145 134.483 156.845 137.7 156.845 141.4C156.845 145.067 156.145 148.283 154.745 151.05C153.378 153.783 151.395 155.917 148.795 157.45C146.195 158.983 143.095 159.75 139.495 159.75ZM139.495 155.65C141.695 155.65 143.495 155.083 144.895 153.95C146.295 152.817 147.345 151.2 148.045 149.1C148.745 146.967 149.095 144.4 149.095 141.4C149.095 138.367 148.745 135.8 148.045 133.7C147.345 131.567 146.295 129.933 144.895 128.8C143.495 127.667 141.695 127.1 139.495 127.1C137.361 127.1 135.578 127.667 134.145 128.8C132.711 129.933 131.645 131.567 130.945 133.7C130.245 135.8 129.895 138.367 129.895 141.4C129.895 144.4 130.245 146.967 130.945 149.1C131.645 151.2 132.711 152.817 134.145 153.95C135.578 155.083 137.361 155.65 139.495 155.65Z" fill="#8D16A0"/>
<circle cx="106.5" cy="87.5" r="11.5" fill="black"/>
<path d="M112.6 86.7256C113.267 87.1095 113.268 88.0717 112.602 88.4577L104.36 93.2338C103.694 93.6197 102.86 93.1399 102.859 92.3701L102.844 82.8438C102.842 82.074 103.675 81.5916 104.342 81.9754L112.6 86.7256Z" fill="white"/>
<defs>
<filter id="filter0_d_2_9" x="0" y="43" width="212" height="89" filterUnits="userSpaceOnUse" color-interpolation-filters="sRGB">
<feFlood flood-opacity="0" result="BackgroundImageFix"/>
<feColorMatrix in="SourceAlpha" type="matrix" values="0 0 0 0 0 0 0 0 0 0 0 0 0 0 0 0 0 0 127 0" result="hardAlpha"/>
<feMorphology radius="10" operator="dilate" in="SourceAlpha" result="effect1_dropShadow_2_9"/>
<feOffset/>
<feGaussianBlur stdDeviation="5"/>
<feComposite in2="hardAlpha" operator="out"/>
<feColorMatrix type="matrix" values="0 0 0 0 0 0 0 0 0 1 0 0 0 0 1 0 0 0 0.25 0"/>
<feBlend mode="normal" in2="BackgroundImageFix" result="effect1_dropShadow_2_9"/>
<feBlend mode="normal" in="SourceGraphic" in2="effect1_dropShadow_2_9" result="shape"/>
</filter>
</defs>
</svg>
